<svg width="90" height="94" viewBox="0 0 90 94" fill="none" xmlns="http://www.w3.org/2000/svg">
<path d="M44.936 94C36.4011 94 28.7198 91.9954 21.8919 87.9861C15.064 83.8897 9.68706 78.268 5.76102 71.121C1.92034 63.974 0 55.9555 0 47.0654C0 38.1752 1.92034 30.1567 5.76102 23.0097C9.68706 15.8628 15.064 10.2411 21.8919 6.14464C28.7198 2.04821 36.4011 0 44.936 0C53.5562 0 61.2802 2.04821 68.1081 6.14464C75.0213 10.1539 80.3983 15.7756 84.239 23.0097C88.0797 30.1567 90 38.1752 90 47.0654C90 55.9555 88.0797 63.974 84.239 71.121C80.3983 78.268 75.0213 83.8897 68.1081 87.9861C61.2802 91.9954 53.5562 94 44.936 94ZM45.064 89.032C50.8677 89.032 55.946 87.3324 60.2987 83.9332C64.7368 80.4469 68.1081 75.5661 70.4125 69.2907C72.8023 62.9281 73.9972 55.5197 73.9972 47.0654C73.9972 38.611 72.8023 31.2462 70.4125 24.9708C68.1081 18.6082 64.7368 13.6838 60.2987 10.1975C55.946 6.71117 50.825 4.96801 44.936 4.96801C39.2176 4.96801 34.1394 6.71117 29.7013 10.1975C25.3485 13.6838 21.9772 18.6082 19.5875 24.9708C17.1977 31.2462 16.0028 38.611 16.0028 47.0654C16.0028 55.5197 17.1977 62.9281 19.5875 69.2907C21.9772 75.5661 25.3485 80.4469 29.7013 83.9332C34.0541 87.3324 39.175 89.032 45.064 89.032Z" fill="white"/>
</svg>
