<svg width="141" height="29" viewBox="0 0 141 29" fill="none" xmlns="http://www.w3.org/2000/svg">
<path d="M1.44141 15.8711C1.44141 11.8398 2.625 8.58203 4.99219 6.09766C7.35938 3.61328 10.3184 2.37109 13.8691 2.37109C17.4199 2.37109 20.2734 3.57812 22.4297 5.99219C24.5859 8.40625 25.6641 11.3594 25.6641 14.8516C25.6641 18.8828 24.4922 22.1465 22.1484 24.6426C19.793 27.1152 16.8281 28.3516 13.2539 28.3516C9.67969 28.3516 6.81445 27.1504 4.6582 24.748C2.51367 22.334 1.44141 19.375 1.44141 15.8711ZM13.9746 26.1719C16.1543 26.1719 17.8184 25.1934 18.9668 23.2363C20.1152 21.2793 20.6953 18.7363 20.707 15.6074C20.707 11.2598 19.6172 8.10742 17.4375 6.15039C16.2773 5.0957 14.8477 4.56836 13.1484 4.56836C10.9688 4.56836 9.30469 5.54688 8.15625 7.50391C7.00781 9.46094 6.42773 12.0098 6.41602 15.1504C6.42773 18.2793 7.06641 20.8984 8.33203 23.0078C9.59766 25.1172 11.4785 26.1719 13.9746 26.1719Z" fill="#1B1D20"/>
<path d="M46.7149 8.69922V10.2812C45.918 10.5977 45.4141 10.8203 45.2032 10.9492C44.9923 11.0781 44.7989 11.3359 44.6231 11.7227L37.3282 28.2812H36.168L28.5391 11.7227C28.3868 11.3594 28.1934 11.1016 27.9591 10.9492C27.7247 10.7969 27.2208 10.5742 26.4473 10.2812V8.69922H35.9923V10.2812C34.9845 10.4219 34.3048 10.5742 33.9532 10.7383C33.3438 11.0078 33.2677 11.6406 33.7247 12.6367L37.7149 22.4277L41.8282 12.6367C41.9923 12.1562 42.0743 11.7578 42.0743 11.4414C42.0743 11.125 41.8985 10.8906 41.547 10.7383C41.1954 10.5859 40.5333 10.4336 39.5606 10.2812V8.69922H46.7149Z" fill="#1B1D20"/>
<path d="M58.9767 15.8008C58.9767 14.1133 58.6427 12.7773 57.9748 11.793C57.3068 10.8086 56.34 10.3164 55.0744 10.3164C53.8088 10.3164 52.7775 10.8438 51.9806 11.8984C51.1955 12.9531 50.7326 14.2539 50.592 15.8008H58.9767ZM55.4435 8.34766C57.9396 8.34766 59.8322 9.09766 61.1213 10.5977C62.4103 12.0977 63.0548 14.0488 63.0548 16.4512V17.6289H50.4865C50.4865 19.8086 51.0548 21.5664 52.1916 22.9023C53.3283 24.2383 54.8459 24.9062 56.7443 24.9062C58.9709 24.9062 60.8224 23.9336 62.299 21.9883L63.09 22.4629C62.633 24.2793 61.7189 25.7148 60.3478 26.7695C58.9767 27.8242 57.2716 28.3516 55.2326 28.3516C52.6193 28.3516 50.5275 27.4727 48.9572 25.7148C47.3869 23.957 46.6017 21.6016 46.6017 18.6484C46.6017 15.7188 47.4513 13.2695 49.1505 11.3008C50.8615 9.33203 52.9591 8.34766 55.4435 8.34766Z" fill="#1B1D20"/>
<path d="M71.6955 8.27734V14.1836C72.7385 11.8984 73.6233 10.3516 74.3498 9.54297C75.0764 8.73438 76.0022 8.33594 77.1272 8.34766C77.7014 8.34766 78.1702 8.5 78.5334 8.80469V12.7773H77.7424C76.4651 12.7773 75.3811 12.9414 74.4905 13.2695C73.5998 13.5977 72.6682 14.2949 71.6955 15.3613V24.2559C71.6955 25.0762 71.9065 25.5918 72.3284 25.8027C72.7502 26.0137 73.6467 26.207 75.0178 26.3828V28H64.7522V26.3828C65.3967 26.2891 65.8713 26.1953 66.176 26.1016C66.4807 26.0078 66.7502 25.8203 66.9846 25.5391C67.219 25.2578 67.3362 24.8535 67.3362 24.3262V12.584L64.928 11.0371V10.1406L70.6584 8.27734H71.6955Z" fill="#1B1D20"/>
<path d="M85.1885 0.595703V24.3262C85.1768 25.0645 85.3702 25.5625 85.7686 25.8203C86.167 26.0781 86.835 26.2656 87.7725 26.3828V28H78.2276V26.3828C78.8721 26.2891 79.3526 26.1953 79.669 26.1016C80.4424 25.8906 80.8409 25.2988 80.8643 24.3262V4.74414L78.4209 3.19727V2.30078L84.2041 0.595703H85.1885Z" fill="#1B1D20"/>
<path d="M93.8644 6.18555C93.0675 6.18555 92.4054 5.92188 91.878 5.39453C91.3507 4.87891 91.087 4.24609 91.087 3.49609C91.087 2.74609 91.3507 2.10742 91.878 1.58008C92.4054 1.05273 93.0675 0.789062 93.8644 0.789062C94.6612 0.789062 95.3175 1.05273 95.8331 1.58008C96.3487 2.10742 96.6066 2.74023 96.6066 3.47852C96.6066 4.2168 96.3487 4.85547 95.8331 5.39453C95.3175 5.93359 94.6612 6.19727 93.8644 6.18555ZM96.1671 8.34766V24.3262C96.1671 25.0996 96.3605 25.6035 96.7472 25.8379C97.1339 26.0723 97.8077 26.2539 98.7687 26.3828V28H89.2237V26.3828C89.8683 26.2891 90.3429 26.1953 90.6476 26.1016C90.9523 26.0078 91.2218 25.8203 91.4562 25.5391C91.6905 25.2578 91.8077 24.8535 91.8077 24.3262V12.5137L89.3995 11.002V10.1406L95.1652 8.34766H96.1671Z" fill="#1B1D20"/>
<path d="M114.88 24.3262V14.6055C114.88 13.5039 114.64 12.707 114.159 12.2148C113.679 11.7227 112.911 11.4766 111.857 11.4766C110.181 11.4766 108.611 11.9922 107.146 13.0234V24.3262C107.146 25.0996 107.333 25.6035 107.708 25.8379C108.083 26.0723 108.734 26.2539 109.659 26.3828V28H100.202V26.3828C100.847 26.2891 101.321 26.1953 101.626 26.1016C101.931 26.0078 102.2 25.8203 102.435 25.5391C102.669 25.2578 102.786 24.8535 102.786 24.3262V12.584L100.378 11.0371V10.1406L106.144 8.27734H107.146V11.9512C109.454 9.54883 111.757 8.34766 114.054 8.34766C117.511 8.34766 119.239 10.3164 119.239 14.2539V24.3262C119.239 25.0996 119.433 25.6035 119.82 25.8379C120.206 26.0723 120.88 26.2539 121.841 26.3828V28H112.331V26.3828C113.269 26.2656 113.925 26.0898 114.3 25.8555C114.675 25.6211 114.868 25.1113 114.88 24.3262Z" fill="#1B1D20"/>
<path d="M135.368 15.8008C135.368 14.1133 135.034 12.7773 134.366 11.793C133.699 10.8086 132.732 10.3164 131.466 10.3164C130.2 10.3164 129.169 10.8438 128.372 11.8984C127.587 12.9531 127.124 14.2539 126.984 15.8008H135.368ZM131.835 8.34766C134.331 8.34766 136.224 9.09766 137.513 10.5977C138.802 12.0977 139.447 14.0488 139.447 16.4512V17.6289H126.878C126.878 19.8086 127.447 21.5664 128.583 22.9023C129.72 24.2383 131.238 24.9062 133.136 24.9062C135.363 24.9062 137.214 23.9336 138.691 21.9883L139.482 22.4629C139.025 24.2793 138.111 25.7148 136.74 26.7695C135.368 27.8242 133.663 28.3516 131.624 28.3516C129.011 28.3516 126.919 27.4727 125.349 25.7148C123.779 23.957 122.993 21.6016 122.993 18.6484C122.993 15.7188 123.843 13.2695 125.542 11.3008C127.253 9.33203 129.351 8.34766 131.835 8.34766Z" fill="#1B1D20"/>
</svg>
