<svg width="178" height="19" viewBox="0 0 178 19" fill="none" xmlns="http://www.w3.org/2000/svg">
<path d="M11.3926 18.24C4.00064 18.24 0.832642 15.168 0.832642 9.57596C0.832642 4.00796 4.00064 0.959961 11.3926 0.959961C18.7606 0.959961 21.9526 4.03196 21.9526 9.57596C21.9526 15.144 18.7606 18.24 11.3926 18.24ZM11.3926 14.616C15.8806 14.616 17.6326 13.008 17.6326 9.57596C17.6326 6.16796 15.9046 4.58396 11.3926 4.58396C6.88064 4.58396 5.15264 6.14396 5.15264 9.57596C5.15264 13.032 6.90464 14.616 11.3926 14.616Z" fill="#1A1A1A"/>
<path d="M42.7608 1.19996H47.6088L38.9688 18H33.0648L24.4248 1.19996H29.2728L36.0168 14.808L42.7608 1.19996Z" fill="#1A1A1A"/>
<path d="M70.0014 4.63196H56.5614V8.03996H70.0014V11.16H56.5614V14.568H70.0014V18H52.2414V1.19996H70.0014V4.63196Z" fill="#1A1A1A"/>
<path d="M94.8093 7.36796C94.8093 10.104 93.4173 12.12 91.1613 13.008L94.2573 18H89.1693L86.4573 13.512H79.4973V18H75.1773V1.19996H88.3773C92.1933 1.19996 94.8093 3.62396 94.8093 7.36796ZM79.4973 4.82396V9.88796H87.1773C88.4733 9.88796 90.4893 9.88796 90.4893 7.36796C90.4893 4.82396 88.4733 4.82396 87.1773 4.82396H79.4973Z" fill="#1A1A1A"/>
<path d="M104.144 14.376H117.104V18H99.8242V1.19996H104.144V14.376Z" fill="#1A1A1A"/>
<path d="M126.705 1.19996V18H122.385V1.19996H126.705Z" fill="#1A1A1A"/>
<path d="M149.548 1.19996H153.868V18H147.988L136.54 5.39996V18H132.22V1.19996H138.076L149.548 13.824V1.19996Z" fill="#1A1A1A"/>
<path d="M177.158 4.63196H163.718V8.03996H177.158V11.16H163.718V14.568H177.158V18H159.398V1.19996H177.158V4.63196Z" fill="#1A1A1A"/>
</svg>
