<svg width="176" height="20" viewBox="0 0 176 20" fill="none" xmlns="http://www.w3.org/2000/svg">
<path d="M156.231 19V1H175.503V5.56H163.671V7.864H174.471V11.848H163.671V14.2H175.695V19H156.231Z" fill="#1A1A19"/>
<path d="M129.858 19V1H140.514L145.962 11.032V1H153.162V19H143.058L137.058 8.104V19H129.858Z" fill="#1A1A19"/>
<path d="M119.353 19V1H126.793V19H119.353Z" fill="#1A1A19"/>
<path d="M98.418 19V1H105.858V13.48H117.138V19H98.418Z" fill="#1A1A19"/>
<path d="M74.248 19V1H90.232C93.904 1 96.2561 3.424 96.2561 7.216C96.2561 10.816 93.712 12.448 90.232 12.712L96.76 19H87.736L82.048 12.76H81.688V19H74.248ZM86.152 8.824C87.736 8.824 88.576 8.44 88.576 7.264C88.576 6.04 87.712 5.704 85.984 5.704H81.688V8.824H86.152Z" fill="#1A1A19"/>
<path d="M52.0176 19V1H71.2896V5.56H59.4576V7.864H70.2576V11.848H59.4576V14.2H71.4816V19H52.0176Z" fill="#1A1A19"/>
<path d="M33.4797 1L37.9437 12.472L42.2637 1H50.3997L42.4797 19H32.9037L24.7197 1H33.4797Z" fill="#1A1A19"/>
<path d="M13.0829 19.6239C5.11489 19.6239 0.962891 15.9039 0.962891 9.9999C0.962891 4.1199 5.11489 0.399902 13.0829 0.399902C21.0509 0.399902 25.2029 4.1199 25.2029 9.9999C25.2029 15.9039 21.0509 19.6239 13.0829 19.6239ZM13.0829 14.1039C15.7709 14.1039 17.0429 12.6879 17.0429 9.9999C17.0429 7.3599 15.7709 5.9439 13.1309 5.8719C10.3949 5.7999 9.12289 7.2159 9.12289 9.9999C9.12289 12.6879 10.3949 14.1039 13.0829 14.1039Z" fill="#1A1A19"/>
</svg>
