<svg width="40" height="40" viewBox="0 0 40 40" fill="none" xmlns="http://www.w3.org/2000/svg">
<path d="M11.25 33.125L3.69 25.5644L3.935 25.8094M19.375 16.25L26.92 23.7956L26.3856 23.2612M20.625 23.75L13.0525 16.1781L13.2356 16.3612M36.1119 14.2362L36.3112 14.435L28.75 6.875M17.5 27.1694C18.7376 27.3913 19.9926 27.502 21.25 27.5C22.9076 27.5 24.4973 26.8415 25.6694 25.6694C26.8415 24.4973 27.5 22.9076 27.5 21.25C27.5 15 25 12.5 25 6.25C25.0017 4.89278 25.4524 3.57427 26.2819 2.5M10 25.3337C8.76254 25.1103 7.50748 24.9986 6.25 25C4.89377 25.0039 3.57633 25.453 2.5 26.2781M22.5 12.8306C21.2624 12.6087 20.0074 12.498 18.75 12.5C17.0924 12.5 15.5027 13.1585 14.3306 14.3306C13.1585 15.5027 12.5 17.0924 12.5 18.75C12.5 25 15 27.5 15 33.75C14.9983 35.1072 14.5476 36.4257 13.7181 37.5M30 14.6663C31.2375 14.8897 32.4925 15.0014 33.75 15C35.1062 14.9961 36.4237 14.547 37.5 13.7219" stroke="url(#paint0_linear_941_47)" stroke-width="2" stroke-miterlimit="10"/>
<defs>
<linearGradient id="paint0_linear_941_47" x1="2.05143" y1="2.2667" x2="38.6766" y2="37.5762" gradientUnits="userSpaceOnUse">
<stop stop-color="#6E9CF1"/>
<stop offset="0.480545" stop-color="#AD86FF"/>
<stop offset="1" stop-color="#FFD8C2"/>
</linearGradient>
</defs>
</svg>
