<svg width="29" height="28" viewBox="0 0 29 28" fill="none" xmlns="http://www.w3.org/2000/svg">
<rect x="0.666504" width="28" height="28" rx="14" fill="#1A1A1A" fill-opacity="0.1"/>
<g clip-path="url(#clip0_955_2)">
<path d="M22.4714 8.8619L21.8047 8.19524C21.5747 7.96524 21.2114 7.93457 20.946 8.1239L11.9867 14.5232L8.36937 12.1119C8.1047 11.9352 7.75337 11.9706 7.52804 12.1952L6.86137 12.8619C6.6127 13.1099 6.60004 13.5079 6.83137 13.7726L11.498 19.1059C11.6167 19.2419 11.786 19.3232 11.966 19.3326C11.9774 19.3326 11.9887 19.3332 11.9994 19.3332C12.168 19.3332 12.3307 19.2692 12.454 19.1539L22.4547 9.82057C22.5867 9.69724 22.6634 9.5259 22.6667 9.34457C22.6694 9.1639 22.5994 8.9899 22.4714 8.8619Z" fill="#1A1A1A"/>
</g>
<defs>
<clipPath id="clip0_955_2">
<rect width="16" height="16" fill="white" transform="translate(6.6665 6)"/>
</clipPath>
</defs>
</svg>
