<svg width="40" height="40" viewBox="0 0 40 40" fill="none" xmlns="http://www.w3.org/2000/svg">
<path d="M37.5 28.75C35.1794 28.75 32.9538 27.8281 31.3128 26.1872C29.6719 24.5462 28.75 22.3206 28.75 20C28.75 22.3206 27.8281 24.5462 26.1872 26.1872C24.5462 27.8281 22.3206 28.75 20 28.75C22.3206 28.75 24.5462 29.6719 26.1872 31.3128C27.8281 32.9538 28.75 35.1794 28.75 37.5C28.7502 36.1744 29.0525 34.8663 29.6339 33.675C30.2154 32.4837 31.0607 31.4407 32.1056 30.625M20 11.25C17.6794 11.25 15.4538 10.3281 13.8128 8.68718C12.1719 7.04624 11.25 4.82064 11.25 2.5C11.25 4.82064 10.3281 7.04624 8.68718 8.68718C7.04624 10.3281 4.82064 11.25 2.5 11.25C4.82064 11.25 7.04624 12.1719 8.68718 13.8128C10.3281 15.4538 11.25 17.6794 11.25 20C11.2502 18.6744 11.5525 17.3663 12.1339 16.175C12.7154 14.9837 13.5607 13.9407 14.6056 13.125M26.25 8.125C27.7418 8.125 29.1726 7.53237 30.2275 6.47748C31.2824 5.42258 31.875 3.99184 31.875 2.5C31.875 3.99184 32.4676 5.42258 33.5225 6.47748C34.5774 7.53237 36.0082 8.125 37.5 8.125C36.0082 8.125 34.5774 8.71763 33.5225 9.77252C32.4676 10.8274 31.875 12.2582 31.875 13.75C31.875 12.2582 31.2824 10.8274 30.2275 9.77252C29.1726 8.71763 27.7418 8.125 26.25 8.125ZM2.5 31.875C3.99184 31.875 5.42258 31.2824 6.47748 30.2275C7.53237 29.1726 8.125 27.7418 8.125 26.25C8.125 27.7418 8.71763 29.1726 9.77252 30.2275C10.8274 31.2824 12.2582 31.875 13.75 31.875C12.2582 31.875 10.8274 32.4676 9.77252 33.5225C8.71763 34.5774 8.125 36.0082 8.125 37.5C8.125 36.0082 7.53237 34.5774 6.47748 33.5225C5.42258 32.4676 3.99184 31.875 2.5 31.875Z" stroke="url(#paint0_linear_940_24)" stroke-width="2" stroke-miterlimit="10"/>
<defs>
<linearGradient id="paint0_linear_940_24" x1="2.05143" y1="2.2667" x2="38.6766" y2="37.5762" gradientUnits="userSpaceOnUse">
<stop stop-color="#6E9CF1"/>
<stop offset="0.480545" stop-color="#AD86FF"/>
<stop offset="1" stop-color="#FFD8C2"/>
</linearGradient>
</defs>
</svg>
